<?xml version="1.0" encoding="UTF-8" standalone="no"?>
<!DOCTYPE svg PUBLIC "-//W3C//DTD SVG 1.1//EN"
 "http://www.w3.org/Graphics/SVG/1.1/DTD/svg11.dtd">
<!-- Generated by graphviz version 2.47.0 (20210316.0004)
 -->
<!-- Title: dependencies Pages: 1 -->
<svg width="504pt" height="284pt"
 viewBox="0.00 0.00 504.00 284.00" xmlns="http://www.w3.org/2000/svg" xmlns:xlink="http://www.w3.org/1999/xlink">
<g id="graph0" class="graph" transform="scale(1 1) rotate(0) translate(4 280)">
<title>dependencies</title>
<polygon fill="white" stroke="transparent" points="-4,4 -4,-280 500,-280 500,4 -4,4"/>
<text text-anchor="start" x="227.01" y="-42.4" font-family="Times-12" font-weight="bold" font-size="14.00">Legend</text>
<polygon fill="#ffffb3" stroke="transparent" points="14,-10 14,-30 34,-30 34,-10 14,-10"/>
<text text-anchor="start" x="37.63" y="-15.4" font-family="Times-12" font-size="14.00"> &#160;Declarations</text>
<polygon fill="#8dd3c7" stroke="transparent" points="127,-10 127,-30 147,-30 147,-10 127,-10"/>
<text text-anchor="start" x="150.73" y="-15.4" font-family="Times-12" font-size="14.00"> &#160;Module</text>
<polygon fill="#80b1d3" stroke="transparent" points="213,-10 213,-30 233,-30 233,-10 213,-10"/>
<text text-anchor="start" x="236.78" y="-15.4" font-family="Times-12" font-size="14.00"> &#160;Bootstrap</text>
<polygon fill="#fdb462" stroke="transparent" points="310,-10 310,-30 330,-30 330,-10 310,-10"/>
<text text-anchor="start" x="333.67" y="-15.4" font-family="Times-12" font-size="14.00"> &#160;Providers</text>
<polygon fill="#fb8072" stroke="transparent" points="406,-10 406,-30 426,-30 426,-10 406,-10"/>
<text text-anchor="start" x="429.73" y="-15.4" font-family="Times-12" font-size="14.00"> &#160;Exports</text>
<g id="clust1" class="cluster">
<title>cluster_PostModule</title>
<polygon fill="none" stroke="black" stroke-dasharray="1,5" points="114,-70 114,-268 382,-268 382,-70 114,-70"/>
</g>
<g id="clust4" class="cluster">
<title>cluster_PostModule_exports</title>
<polygon fill="none" stroke="black" points="201,-208 201,-260 309,-260 309,-208 201,-208"/>
</g>
<g id="clust3" class="cluster">
<title>cluster_PostModule_imports</title>
<polygon fill="none" stroke="black" points="266,-78 266,-130 374,-130 374,-78 266,-78"/>
</g>
<g id="clust6" class="cluster">
<title>cluster_PostModule_providers</title>
<polygon fill="none" stroke="black" points="122,-78 122,-130 258,-130 258,-78 122,-78"/>
</g>
<!-- UsersModule -->
<g id="node1" class="node">
<title>UsersModule</title>
<polygon fill="#8dd3c7" stroke="black" points="365.92,-122 362.92,-126 341.92,-126 338.92,-122 274.08,-122 274.08,-86 365.92,-86 365.92,-122"/>
<text text-anchor="middle" x="320" y="-99.8" font-family="Times,serif" font-size="14.00">UsersModule</text>
</g>
<!-- PostModule -->
<g id="node2" class="node">
<title>PostModule</title>
<polygon fill="#8dd3c7" stroke="black" points="296.67,-187 293.67,-191 272.67,-191 269.67,-187 213.33,-187 213.33,-151 296.67,-151 296.67,-187"/>
<text text-anchor="middle" x="255" y="-164.8" font-family="Times,serif" font-size="14.00">PostModule</text>
</g>
<!-- UsersModule&#45;&gt;PostModule -->
<g id="edge1" class="edge">
<title>UsersModule&#45;&gt;PostModule</title>
<path fill="none" stroke="black" d="M285.56,-122.11C285.56,-122.11 285.56,-140.99 285.56,-140.99"/>
<polygon fill="black" stroke="black" points="282.06,-140.99 285.56,-150.99 289.06,-140.99 282.06,-140.99"/>
</g>
<!-- PostServices  -->
<g id="node3" class="node">
<title>PostServices </title>
<polygon fill="#fb8072" stroke="black" points="300.54,-252 209.46,-252 209.46,-216 300.54,-216 300.54,-252"/>
<text text-anchor="middle" x="255" y="-229.8" font-family="Times,serif" font-size="14.00">PostServices </text>
</g>
<!-- PostModule&#45;&gt;PostServices  -->
<g id="edge2" class="edge">
<title>PostModule&#45;&gt;PostServices </title>
<path fill="none" stroke="black" stroke-dasharray="5,2" d="M255,-187.11C255,-187.11 255,-205.99 255,-205.99"/>
<polygon fill="black" stroke="black" points="251.5,-205.99 255,-215.99 258.5,-205.99 251.5,-205.99"/>
</g>
<!-- PostServices -->
<g id="node4" class="node">
<title>PostServices</title>
<ellipse fill="#fdb462" stroke="black" cx="190" cy="-104" rx="60.27" ry="18"/>
<text text-anchor="middle" x="190" y="-99.8" font-family="Times,serif" font-size="14.00">PostServices</text>
</g>
<!-- PostServices&#45;&gt;PostModule -->
<g id="edge3" class="edge">
<title>PostServices&#45;&gt;PostModule</title>
<path fill="none" stroke="black" d="M231.77,-117.15C231.77,-117.15 231.77,-140.69 231.77,-140.69"/>
<polygon fill="black" stroke="black" points="228.27,-140.69 231.77,-150.69 235.27,-140.69 228.27,-140.69"/>
</g>
</g>
</svg>
