<?xml version="1.0" encoding="UTF-8" standalone="no"?>
<!DOCTYPE svg PUBLIC "-//W3C//DTD SVG 1.1//EN"
 "http://www.w3.org/Graphics/SVG/1.1/DTD/svg11.dtd">
<!-- Generated by graphviz version 2.47.0 (20210316.0004)
 -->
<!-- Title: dependencies Pages: 1 -->
<svg width="1200pt" height="371pt"
 viewBox="0.00 0.00 1200.00 371.00" xmlns="http://www.w3.org/2000/svg" xmlns:xlink="http://www.w3.org/1999/xlink">
<g id="graph0" class="graph" transform="scale(1 1) rotate(0) translate(4 367)">
<title>dependencies</title>
<polygon fill="white" stroke="transparent" points="-4,4 -4,-367 1196,-367 1196,4 -4,4"/>
<text text-anchor="start" x="575.01" y="-42.4" font-family="Times-12" font-weight="bold" font-size="14.00">Legend</text>
<polygon fill="#ffffb3" stroke="transparent" points="362,-10 362,-30 382,-30 382,-10 362,-10"/>
<text text-anchor="start" x="385.63" y="-15.4" font-family="Times-12" font-size="14.00"> &#160;Declarations</text>
<polygon fill="#8dd3c7" stroke="transparent" points="475,-10 475,-30 495,-30 495,-10 475,-10"/>
<text text-anchor="start" x="498.73" y="-15.4" font-family="Times-12" font-size="14.00"> &#160;Module</text>
<polygon fill="#80b1d3" stroke="transparent" points="561,-10 561,-30 581,-30 581,-10 561,-10"/>
<text text-anchor="start" x="584.78" y="-15.4" font-family="Times-12" font-size="14.00"> &#160;Bootstrap</text>
<polygon fill="#fdb462" stroke="transparent" points="658,-10 658,-30 678,-30 678,-10 658,-10"/>
<text text-anchor="start" x="681.67" y="-15.4" font-family="Times-12" font-size="14.00"> &#160;Providers</text>
<polygon fill="#fb8072" stroke="transparent" points="754,-10 754,-30 774,-30 774,-10 754,-10"/>
<text text-anchor="start" x="777.73" y="-15.4" font-family="Times-12" font-size="14.00"> &#160;Exports</text>
<g id="clust1" class="cluster">
<title>cluster_AppModule</title>
<polygon fill="none" stroke="black" stroke-dasharray="1,5" points="8,-146 8,-347 630,-347 630,-146 8,-146"/>
</g>
<g id="clust3" class="cluster">
<title>cluster_AppModule_imports</title>
<polygon fill="none" stroke="black" points="154,-154 154,-271 622,-271 622,-154 154,-154"/>
</g>
<g id="clust6" class="cluster">
<title>cluster_AppModule_providers</title>
<polygon fill="none" stroke="black" points="16,-219 16,-271 146,-271 146,-219 16,-219"/>
</g>
<g id="clust7" class="cluster">
<title>cluster_AuthModule</title>
<polygon fill="none" stroke="black" stroke-dasharray="1,5" points="638,-211 638,-279 902,-279 902,-211 638,-211"/>
</g>
<g id="clust10" class="cluster">
<title>cluster_AuthModule_exports</title>
<polygon fill="none" stroke="black" points="788,-219 788,-271 894,-271 894,-219 788,-219"/>
</g>
<g id="clust12" class="cluster">
<title>cluster_AuthModule_providers</title>
<polygon fill="none" stroke="black" points="646,-219 646,-271 780,-271 780,-219 646,-219"/>
</g>
<g id="clust13" class="cluster">
<title>cluster_MetaOptionsModule</title>
<polygon fill="none" stroke="black" stroke-dasharray="1,5" points="126,-70 126,-138 330,-138 330,-70 126,-70"/>
</g>
<g id="clust18" class="cluster">
<title>cluster_MetaOptionsModule_providers</title>
<polygon fill="none" stroke="black" points="134,-78 134,-130 322,-130 322,-78 134,-78"/>
</g>
<g id="clust19" class="cluster">
<title>cluster_PostModule</title>
<polygon fill="none" stroke="black" stroke-dasharray="1,5" points="638,-287 638,-355 906,-355 906,-287 638,-287"/>
</g>
<g id="clust22" class="cluster">
<title>cluster_PostModule_exports</title>
<polygon fill="none" stroke="black" points="790,-295 790,-347 898,-347 898,-295 790,-295"/>
</g>
<g id="clust24" class="cluster">
<title>cluster_PostModule_providers</title>
<polygon fill="none" stroke="black" points="646,-295 646,-347 782,-347 782,-295 646,-295"/>
</g>
<g id="clust31" class="cluster">
<title>cluster_UsersModule</title>
<polygon fill="none" stroke="black" stroke-dasharray="1,5" points="910,-211 910,-279 1184,-279 1184,-211 910,-211"/>
</g>
<g id="clust34" class="cluster">
<title>cluster_UsersModule_exports</title>
<polygon fill="none" stroke="black" points="1066,-219 1066,-271 1176,-271 1176,-219 1066,-219"/>
</g>
<g id="clust36" class="cluster">
<title>cluster_UsersModule_providers</title>
<polygon fill="none" stroke="black" points="918,-219 918,-271 1058,-271 1058,-219 918,-219"/>
</g>
<!-- AuthModule -->
<g id="node1" class="node">
<title>AuthModule</title>
<polygon fill="#8dd3c7" stroke="black" points="504.55,-198 501.55,-202 480.55,-202 477.55,-198 417.45,-198 417.45,-162 504.55,-162 504.55,-198"/>
<text text-anchor="middle" x="461" y="-175.8" font-family="Times,serif" font-size="14.00">AuthModule</text>
</g>
<!-- AppModule -->
<g id="node6" class="node">
<title>AppModule</title>
<polygon fill="#8dd3c7" stroke="black" points="439.66,-339 436.66,-343 415.66,-343 412.66,-339 356.34,-339 356.34,-303 439.66,-303 439.66,-339"/>
<text text-anchor="middle" x="398" y="-316.8" font-family="Times,serif" font-size="14.00">AppModule</text>
</g>
<!-- AuthModule&#45;&gt;AppModule -->
<g id="edge1" class="edge">
<title>AuthModule&#45;&gt;AppModule</title>
<path fill="none" stroke="black" d="M424.76,-198.14C424.76,-198.14 424.76,-292.93 424.76,-292.93"/>
<polygon fill="black" stroke="black" points="421.26,-292.92 424.76,-302.93 428.26,-292.93 421.26,-292.92"/>
</g>
<!-- AuthService  -->
<g id="node8" class="node">
<title>AuthService </title>
<polygon fill="#fb8072" stroke="black" points="885.98,-263 796.02,-263 796.02,-227 885.98,-227 885.98,-263"/>
<text text-anchor="middle" x="841" y="-240.8" font-family="Times,serif" font-size="14.00">AuthService </text>
</g>
<!-- AuthModule&#45;&gt;AuthService  -->
<g id="edge7" class="edge">
<title>AuthModule&#45;&gt;AuthService </title>
<path fill="none" stroke="black" stroke-dasharray="5,2" d="M461.48,-198.21C461.48,-203.55 461.48,-208 461.48,-208 461.48,-208 841,-208 841,-208 841,-208 841,-216.93 841,-216.93"/>
<polygon fill="black" stroke="black" points="837.5,-216.93 841,-226.93 844.5,-216.93 837.5,-216.93"/>
</g>
<!-- MetaOptionsModule -->
<g id="node2" class="node">
<title>MetaOptionsModule</title>
<polygon fill="#8dd3c7" stroke="black" points="294.15,-198 291.15,-202 270.15,-202 267.15,-198 161.85,-198 161.85,-162 294.15,-162 294.15,-198"/>
<text text-anchor="middle" x="228" y="-175.8" font-family="Times,serif" font-size="14.00">MetaOptionsModule</text>
</g>
<!-- MetaOptionsModule&#45;&gt;AppModule -->
<g id="edge2" class="edge">
<title>MetaOptionsModule&#45;&gt;AppModule</title>
<path fill="none" stroke="black" d="M228,-198.14C228,-236.23 228,-321 228,-321 228,-321 345.98,-321 345.98,-321"/>
<polygon fill="black" stroke="black" points="345.98,-324.5 355.98,-321 345.98,-317.5 345.98,-324.5"/>
</g>
<!-- PostModule -->
<g id="node3" class="node">
<title>PostModule</title>
<polygon fill="#8dd3c7" stroke="black" points="611.67,-263 608.67,-267 587.67,-267 584.67,-263 528.33,-263 528.33,-227 611.67,-227 611.67,-263"/>
<text text-anchor="middle" x="570" y="-240.8" font-family="Times,serif" font-size="14.00">PostModule</text>
</g>
<!-- PostModule&#45;&gt;AppModule -->
<g id="edge3" class="edge">
<title>PostModule&#45;&gt;AppModule</title>
<path fill="none" stroke="black" d="M528.31,-251C487.78,-251 432.29,-251 432.29,-251 432.29,-251 432.29,-292.97 432.29,-292.97"/>
<polygon fill="black" stroke="black" points="428.79,-292.97 432.29,-302.97 435.79,-292.97 428.79,-292.97"/>
</g>
<!-- PostServices  -->
<g id="node11" class="node">
<title>PostServices </title>
<polygon fill="#fb8072" stroke="black" points="889.54,-339 798.46,-339 798.46,-303 889.54,-303 889.54,-339"/>
<text text-anchor="middle" x="844" y="-316.8" font-family="Times,serif" font-size="14.00">PostServices </text>
</g>
<!-- PostModule&#45;&gt;PostServices  -->
<g id="edge11" class="edge">
<title>PostModule&#45;&gt;PostServices </title>
<path fill="none" stroke="black" stroke-dasharray="5,2" d="M556.06,-263.11C556.06,-272.9 556.06,-283 556.06,-283 556.06,-283 842.11,-283 842.11,-283 842.11,-283 842.11,-292.89 842.11,-292.89"/>
<polygon fill="black" stroke="black" points="838.61,-292.89 842.11,-302.89 845.61,-292.89 838.61,-292.89"/>
</g>
<!-- TagsModule -->
<g id="node4" class="node">
<title>TagsModule</title>
<polygon fill="#8dd3c7" stroke="black" points="399.26,-198 396.26,-202 375.26,-202 372.26,-198 312.74,-198 312.74,-162 399.26,-162 399.26,-198"/>
<text text-anchor="middle" x="356" y="-175.8" font-family="Times,serif" font-size="14.00">TagsModule</text>
</g>
<!-- TagsModule&#45;&gt;AppModule -->
<g id="edge4" class="edge">
<title>TagsModule&#45;&gt;AppModule</title>
<path fill="none" stroke="black" d="M384.98,-198.14C384.98,-198.14 384.98,-292.93 384.98,-292.93"/>
<polygon fill="black" stroke="black" points="381.48,-292.92 384.98,-302.93 388.48,-292.93 381.48,-292.92"/>
</g>
<!-- UsersModule -->
<g id="node5" class="node">
<title>UsersModule</title>
<polygon fill="#8dd3c7" stroke="black" points="613.92,-198 610.92,-202 589.92,-202 586.92,-198 522.08,-198 522.08,-162 613.92,-162 613.92,-198"/>
<text text-anchor="middle" x="568" y="-175.8" font-family="Times,serif" font-size="14.00">UsersModule</text>
</g>
<!-- UsersModule&#45;&gt;PostModule -->
<g id="edge10" class="edge">
<title>UsersModule&#45;&gt;PostModule</title>
<path fill="none" stroke="black" d="M570,-198.11C570,-198.11 570,-216.99 570,-216.99"/>
<polygon fill="black" stroke="black" points="566.5,-216.99 570,-226.99 573.5,-216.99 566.5,-216.99"/>
</g>
<!-- UsersModule&#45;&gt;AppModule -->
<g id="edge5" class="edge">
<title>UsersModule&#45;&gt;AppModule</title>
<path fill="none" stroke="black" d="M522.04,-180C516.94,-180 513.53,-180 513.53,-180 513.53,-180 513.53,-315 513.53,-315 513.53,-315 449.71,-315 449.71,-315"/>
<polygon fill="black" stroke="black" points="449.71,-311.5 439.71,-315 449.71,-318.5 449.71,-311.5"/>
</g>
<!-- UserServices  -->
<g id="node13" class="node">
<title>UserServices </title>
<polygon fill="#fb8072" stroke="black" points="1167.85,-263 1074.15,-263 1074.15,-227 1167.85,-227 1167.85,-263"/>
<text text-anchor="middle" x="1121" y="-240.8" font-family="Times,serif" font-size="14.00">UserServices </text>
</g>
<!-- UsersModule&#45;&gt;UserServices  -->
<g id="edge13" class="edge">
<title>UsersModule&#45;&gt;UserServices </title>
<path fill="none" stroke="black" stroke-dasharray="5,2" d="M613.72,-174C746.22,-174 1121,-174 1121,-174 1121,-174 1121,-216.72 1121,-216.72"/>
<polygon fill="black" stroke="black" points="1117.5,-216.72 1121,-226.72 1124.5,-216.72 1117.5,-216.72"/>
</g>
<!-- AppService -->
<g id="node7" class="node">
<title>AppService</title>
<ellipse fill="#fdb462" stroke="black" cx="81" cy="-245" rx="56.74" ry="18"/>
<text text-anchor="middle" x="81" y="-240.8" font-family="Times,serif" font-size="14.00">AppService</text>
</g>
<!-- AppService&#45;&gt;AppModule -->
<g id="edge6" class="edge">
<title>AppService&#45;&gt;AppModule</title>
<path fill="none" stroke="black" d="M134.45,-239C218.12,-239 370.57,-239 370.57,-239 370.57,-239 370.57,-292.8 370.57,-292.8"/>
<polygon fill="black" stroke="black" points="367.07,-292.8 370.57,-302.8 374.07,-292.8 367.07,-292.8"/>
</g>
<!-- AuthService -->
<g id="node9" class="node">
<title>AuthService</title>
<ellipse fill="#fdb462" stroke="black" cx="713" cy="-245" rx="59.11" ry="18"/>
<text text-anchor="middle" x="713" y="-240.8" font-family="Times,serif" font-size="14.00">AuthService</text>
</g>
<!-- AuthService&#45;&gt;AuthModule -->
<g id="edge8" class="edge">
<title>AuthService&#45;&gt;AuthModule</title>
<path fill="none" stroke="black" d="M713,-226.84C713,-221.96 713,-218 713,-218 713,-218 483.13,-218 483.13,-218 483.13,-218 483.13,-208.11 483.13,-208.11"/>
<polygon fill="black" stroke="black" points="486.63,-208.11 483.13,-198.11 479.63,-208.11 486.63,-208.11"/>
</g>
<!-- metaOptionService -->
<g id="node10" class="node">
<title>metaOptionService</title>
<ellipse fill="#fdb462" stroke="black" cx="228" cy="-104" rx="85.67" ry="18"/>
<text text-anchor="middle" x="228" y="-99.8" font-family="Times,serif" font-size="14.00">metaOptionService</text>
</g>
<!-- metaOptionService&#45;&gt;MetaOptionsModule -->
<g id="edge9" class="edge">
<title>metaOptionService&#45;&gt;MetaOptionsModule</title>
<path fill="none" stroke="black" d="M228,-122.01C228,-122.01 228,-151.85 228,-151.85"/>
<polygon fill="black" stroke="black" points="224.5,-151.85 228,-161.85 231.5,-151.85 224.5,-151.85"/>
</g>
<!-- PostServices -->
<g id="node12" class="node">
<title>PostServices</title>
<ellipse fill="#fdb462" stroke="black" cx="714" cy="-321" rx="60.27" ry="18"/>
<text text-anchor="middle" x="714" y="-316.8" font-family="Times,serif" font-size="14.00">PostServices</text>
</g>
<!-- PostServices&#45;&gt;PostModule -->
<g id="edge12" class="edge">
<title>PostServices&#45;&gt;PostModule</title>
<path fill="none" stroke="black" d="M656.96,-327C622.01,-327 583.94,-327 583.94,-327 583.94,-327 583.94,-273.2 583.94,-273.2"/>
<polygon fill="black" stroke="black" points="587.44,-273.2 583.94,-263.2 580.44,-273.2 587.44,-273.2"/>
</g>
<!-- UserServices -->
<g id="node14" class="node">
<title>UserServices</title>
<ellipse fill="#fdb462" stroke="black" cx="988" cy="-245" rx="61.95" ry="18"/>
<text text-anchor="middle" x="988" y="-240.8" font-family="Times,serif" font-size="14.00">UserServices</text>
</g>
<!-- UserServices&#45;&gt;UsersModule -->
<g id="edge14" class="edge">
<title>UserServices&#45;&gt;UsersModule</title>
<path fill="none" stroke="black" d="M988,-226.98C988,-209.63 988,-186 988,-186 988,-186 623.75,-186 623.75,-186"/>
<polygon fill="black" stroke="black" points="623.75,-182.5 613.75,-186 623.75,-189.5 623.75,-182.5"/>
</g>
</g>
</svg>
