<?xml version="1.0" encoding="UTF-8" standalone="no"?>
<!DOCTYPE svg PUBLIC "-//W3C//DTD SVG 1.1//EN"
 "http://www.w3.org/Graphics/SVG/1.1/DTD/svg11.dtd">
<!-- Generated by graphviz version 2.47.0 (20210316.0004)
 -->
<!-- Title: dependencies Pages: 1 -->
<svg width="748pt" height="211pt"
 viewBox="0.00 0.00 748.00 211.00" xmlns="http://www.w3.org/2000/svg" xmlns:xlink="http://www.w3.org/1999/xlink">
<g id="graph0" class="graph" transform="scale(1 1) rotate(0) translate(4 207)">
<title>dependencies</title>
<polygon fill="white" stroke="transparent" points="-4,4 -4,-207 744,-207 744,4 -4,4"/>
<text text-anchor="start" x="349.01" y="-42.4" font-family="Times-12" font-weight="bold" font-size="14.00">Legend</text>
<polygon fill="#ffffb3" stroke="transparent" points="136,-10 136,-30 156,-30 156,-10 136,-10"/>
<text text-anchor="start" x="159.63" y="-15.4" font-family="Times-12" font-size="14.00"> &#160;Declarations</text>
<polygon fill="#8dd3c7" stroke="transparent" points="249,-10 249,-30 269,-30 269,-10 249,-10"/>
<text text-anchor="start" x="272.73" y="-15.4" font-family="Times-12" font-size="14.00"> &#160;Module</text>
<polygon fill="#80b1d3" stroke="transparent" points="335,-10 335,-30 355,-30 355,-10 335,-10"/>
<text text-anchor="start" x="358.78" y="-15.4" font-family="Times-12" font-size="14.00"> &#160;Bootstrap</text>
<polygon fill="#fdb462" stroke="transparent" points="432,-10 432,-30 452,-30 452,-10 432,-10"/>
<text text-anchor="start" x="455.67" y="-15.4" font-family="Times-12" font-size="14.00"> &#160;Providers</text>
<polygon fill="#fb8072" stroke="transparent" points="528,-10 528,-30 548,-30 548,-10 528,-10"/>
<text text-anchor="start" x="551.73" y="-15.4" font-family="Times-12" font-size="14.00"> &#160;Exports</text>
<g id="clust1" class="cluster">
<title>cluster_AppModule</title>
<polygon fill="none" stroke="black" stroke-dasharray="1,5" points="8,-70 8,-195 732,-195 732,-70 8,-70"/>
</g>
<g id="clust6" class="cluster">
<title>cluster_AppModule_providers</title>
<polygon fill="none" stroke="black" points="594,-78 594,-130 724,-130 724,-78 594,-78"/>
</g>
<g id="clust3" class="cluster">
<title>cluster_AppModule_imports</title>
<polygon fill="none" stroke="black" points="16,-78 16,-130 586,-130 586,-78 16,-78"/>
</g>
<!-- AuthModule -->
<g id="node1" class="node">
<title>AuthModule</title>
<polygon fill="#8dd3c7" stroke="black" points="577.55,-122 574.55,-126 553.55,-126 550.55,-122 490.45,-122 490.45,-86 577.55,-86 577.55,-122"/>
<text text-anchor="middle" x="534" y="-99.8" font-family="Times,serif" font-size="14.00">AuthModule</text>
</g>
<!-- AppModule -->
<g id="node6" class="node">
<title>AppModule</title>
<polygon fill="#8dd3c7" stroke="black" points="384.66,-187 381.66,-191 360.66,-191 357.66,-187 301.34,-187 301.34,-151 384.66,-151 384.66,-187"/>
<text text-anchor="middle" x="343" y="-164.8" font-family="Times,serif" font-size="14.00">AppModule</text>
</g>
<!-- AuthModule&#45;&gt;AppModule -->
<g id="edge1" class="edge">
<title>AuthModule&#45;&gt;AppModule</title>
<path fill="none" stroke="black" d="M534,-122.02C534,-139.37 534,-163 534,-163 534,-163 394.92,-163 394.92,-163"/>
<polygon fill="black" stroke="black" points="394.92,-159.5 384.92,-163 394.92,-166.5 394.92,-159.5"/>
</g>
<!-- MetaOptionsModule -->
<g id="node2" class="node">
<title>MetaOptionsModule</title>
<polygon fill="#8dd3c7" stroke="black" points="472.15,-122 469.15,-126 448.15,-126 445.15,-122 339.85,-122 339.85,-86 472.15,-86 472.15,-122"/>
<text text-anchor="middle" x="406" y="-99.8" font-family="Times,serif" font-size="14.00">MetaOptionsModule</text>
</g>
<!-- MetaOptionsModule&#45;&gt;AppModule -->
<g id="edge2" class="edge">
<title>MetaOptionsModule&#45;&gt;AppModule</title>
<path fill="none" stroke="black" d="M362.25,-122.11C362.25,-122.11 362.25,-140.99 362.25,-140.99"/>
<polygon fill="black" stroke="black" points="358.75,-140.99 362.25,-150.99 365.75,-140.99 358.75,-140.99"/>
</g>
<!-- PostModule -->
<g id="node3" class="node">
<title>PostModule</title>
<polygon fill="#8dd3c7" stroke="black" points="321.67,-122 318.67,-126 297.67,-126 294.67,-122 238.33,-122 238.33,-86 321.67,-86 321.67,-122"/>
<text text-anchor="middle" x="280" y="-99.8" font-family="Times,serif" font-size="14.00">PostModule</text>
</g>
<!-- PostModule&#45;&gt;AppModule -->
<g id="edge3" class="edge">
<title>PostModule&#45;&gt;AppModule</title>
<path fill="none" stroke="black" d="M311.5,-122.11C311.5,-122.11 311.5,-140.99 311.5,-140.99"/>
<polygon fill="black" stroke="black" points="308,-140.99 311.5,-150.99 315,-140.99 308,-140.99"/>
</g>
<!-- TagsModule -->
<g id="node4" class="node">
<title>TagsModule</title>
<polygon fill="#8dd3c7" stroke="black" points="220.26,-122 217.26,-126 196.26,-126 193.26,-122 133.74,-122 133.74,-86 220.26,-86 220.26,-122"/>
<text text-anchor="middle" x="177" y="-99.8" font-family="Times,serif" font-size="14.00">TagsModule</text>
</g>
<!-- TagsModule&#45;&gt;AppModule -->
<g id="edge4" class="edge">
<title>TagsModule&#45;&gt;AppModule</title>
<path fill="none" stroke="black" d="M177,-122.02C177,-139.37 177,-163 177,-163 177,-163 291.11,-163 291.11,-163"/>
<polygon fill="black" stroke="black" points="291.11,-166.5 301.11,-163 291.11,-159.5 291.11,-166.5"/>
</g>
<!-- UsersModule -->
<g id="node5" class="node">
<title>UsersModule</title>
<polygon fill="#8dd3c7" stroke="black" points="115.92,-122 112.92,-126 91.92,-126 88.92,-122 24.08,-122 24.08,-86 115.92,-86 115.92,-122"/>
<text text-anchor="middle" x="70" y="-99.8" font-family="Times,serif" font-size="14.00">UsersModule</text>
</g>
<!-- UsersModule&#45;&gt;AppModule -->
<g id="edge5" class="edge">
<title>UsersModule&#45;&gt;AppModule</title>
<path fill="none" stroke="black" d="M70,-122.28C70,-143.32 70,-175 70,-175 70,-175 291.24,-175 291.24,-175"/>
<polygon fill="black" stroke="black" points="291.24,-178.5 301.24,-175 291.24,-171.5 291.24,-178.5"/>
</g>
<!-- AppService -->
<g id="node7" class="node">
<title>AppService</title>
<ellipse fill="#fdb462" stroke="black" cx="659" cy="-104" rx="56.74" ry="18"/>
<text text-anchor="middle" x="659" y="-99.8" font-family="Times,serif" font-size="14.00">AppService</text>
</g>
<!-- AppService&#45;&gt;AppModule -->
<g id="edge6" class="edge">
<title>AppService&#45;&gt;AppModule</title>
<path fill="none" stroke="black" d="M659,-122.28C659,-143.32 659,-175 659,-175 659,-175 394.96,-175 394.96,-175"/>
<polygon fill="black" stroke="black" points="394.96,-171.5 384.96,-175 394.96,-178.5 394.96,-171.5"/>
</g>
</g>
</svg>
